<?xml version="1.0" encoding="utf-8"?>
<!-- Generator: Adobe Illustrator 18.1.1, SVG Export Plug-In . SVG Version: 6.00 Build 0)  -->
<!DOCTYPE svg PUBLIC "-//W3C//DTD SVG 1.1//EN" "http://www.w3.org/Graphics/SVG/1.1/DTD/svg11.dtd">
<svg version="1.1" xmlns="http://www.w3.org/2000/svg" xmlns:xlink="http://www.w3.org/1999/xlink" x="0px" y="0px"
	 viewBox="0 0 488 487" enable-background="new 0 0 488 487" xml:space="preserve">
<g id="Layer_2">
	<rect fill="none" width="488" height="487"/>
</g>
<g id="Layer_1">
	<path id="building" fill="#FFFFFF" d="M488.1,151.7c-17.9-18.1-48.4-31.9-83-33.3l-1,0v-1.4h-3l-0.8-21.4h1.3v-0.6h-1.9V74.2
		l0.6-0.3c0.7-0.3,1.2-0.9,1.5-1.6l0.2-0.6h10.5l0.3,0.3c0.2,0.2,0.5,0.3,0.8,0.3c0.6,0,1.1-0.5,1.1-1.1c0-0.6-0.5-1.1-1.1-1.1
		c-0.3,0-0.5,0.1-0.7,0.3l-0.3,0.3H402l-0.3-0.6c-0.3-0.6-0.8-1.1-1.4-1.3l-0.6-0.3V53.5l0.3-0.3c0.1-0.1,0.3-0.4,0.3-0.7
		c0-0.6-0.5-1.1-1.1-1.1s-1.1,0.5-1.1,1.1c0,0.3,0.2,0.6,0.3,0.7l0.3,0.3v15.2l-0.6,0.3c-0.5,0.3-1,0.7-1.3,1.3l-0.3,0.6h-10.9
		l-0.3-0.3c-0.1-0.1-0.4-0.3-0.7-0.3c-0.6,0-1.1,0.5-1.1,1.1c0,0.6,0.5,1.1,1.1,1.1c0.3,0,0.6-0.1,0.8-0.3l0.3-0.3h10.7l0.2,0.6
		c0.3,0.7,0.8,1.2,1.4,1.5l0.6,0.3v20.7h-1.8v0.7h1.2l-0.8,21.3h-2.8v1.3l-1,0c-58.3,1.8-102.1,35.3-102.1,73.9c0,0.4,0,0.6,0,0.6
		l-6.3,2.7v59.3h-7.3v27.3l-44.3,20.9v-18.1h-7.6v-60.5h-6.2c-0.9-35.1-29.7-63.3-65-63.3c-35.4,0-64.1,28.2-65,63.3h-6.3v60.5H76
		V487h412L488.1,151.7z"/>
	<g id="windows">
		<path id="window-left" fill="#939598" d="M156.1,227.8c-3.7,0-6.7,3-6.7,6.7v69.8h13.4v-69.8C162.8,230.8,159.8,227.8,156.1,227.8
			z"/>
		<path fill="#939598" d="M300.6,199.5c-1.3,0-2.4,3-2.4,6.7v45.4h4.8v-45.4C303,202.5,301.9,199.5,300.6,199.5z"/>
		<path fill="#939598" d="M472.2,199.5c-2.7,0-4.8,3-4.8,6.7v45.4h9.6v-45.4C477,202.5,474.8,199.5,472.2,199.5z"/>
		<path fill="#939598" d="M435.7,199.5c-3.7,0-6.7,3-6.7,6.7v34.3l13.4,6.2v-40.5C442.4,202.5,439.4,199.5,435.7,199.5z"/>
		<path fill="#939598" d="M327.3,199.5c-2.7,0-4.8,3-4.8,6.7v45.4h9.6v-45.4C332.1,202.5,330,199.5,327.3,199.5z"/>
		<path fill="#939598" d="M356.5,206.2v40.3l13.4-6.2v-34.1c0-3.7-3-6.7-6.7-6.7C359.5,199.5,356.5,202.5,356.5,206.2z"/>
	</g>
	<path id="backdrop" fill="none" d="M83.5,284.8v-60.5h6.3c0.9-35.1,29.7-63.3,65-63.3c35.4,0,64.1,28.2,65,63.3h6.2v60.5h7.6v18.1
		l44.3-20.9v-27.3h7.3v-59.3l6.3-2.7c0,0,0-0.2,0-0.6c0-38.6,43.8-72.1,102.1-73.9l1,0v-1.3h2.8l0.8-21.3h-1.2v-0.7h1.8V74.2
		l-0.6-0.3c-0.6-0.3-1.2-0.9-1.4-1.5l-0.2-0.6h-10.7l-0.3,0.3c-0.2,0.2-0.5,0.3-0.8,0.3c-0.6,0-1.1-0.5-1.1-1.1
		c0-0.6,0.5-1.1,1.1-1.1c0.3,0,0.5,0.1,0.7,0.3l0.3,0.3h10.9l0.3-0.6c0.3-0.6,0.7-1,1.3-1.3l0.6-0.3V53.5l-0.3-0.3
		c-0.1-0.1-0.3-0.4-0.3-0.7c0-0.6,0.5-1.1,1.1-1.1s1.1,0.5,1.1,1.1c0,0.3-0.2,0.6-0.3,0.7l-0.3,0.3v15.1l0.6,0.3
		c0.6,0.2,1.1,0.7,1.4,1.3l0.3,0.6h10.7l0.3-0.3c0.1-0.1,0.4-0.3,0.7-0.3c0.6,0,1.1,0.5,1.1,1.1c0,0.6-0.5,1.1-1.1,1.1
		c-0.3,0-0.6-0.1-0.8-0.3l-0.3-0.3h-10.5l-0.2,0.6c-0.3,0.7-0.8,1.3-1.5,1.6l-0.6,0.3v20.7h1.9v0.6h-1.3l0.8,21.4h3v1.4l1,0
		c34.6,1.4,63.9,14,81.8,32.2V0H0v487h76V284.8H83.5z"/>
	<path id="dome-cross" fill="#FFFFFF" d="M413.7,70.2c-0.3,0-0.5,0.1-0.7,0.3l-0.3,0.3H402l-0.3-0.6c-0.3-0.6-0.8-1.1-1.4-1.3
		l-0.6-0.3V53.5l0.3-0.3c0.1-0.1,0.3-0.4,0.3-0.7c0-0.6-0.5-1.1-1.1-1.1s-1.1,0.5-1.1,1.1c0,0.3,0.2,0.6,0.3,0.7l0.3,0.3v15.2
		l-0.6,0.3c-0.5,0.3-1,0.7-1.3,1.3l-0.3,0.6h-10.9l-0.3-0.3c-0.1-0.1-0.4-0.3-0.7-0.3c-0.6,0-1.1,0.5-1.1,1.1c0,0.6,0.5,1.1,1.1,1.1
		c0.3,0,0.6-0.1,0.8-0.3l0.3-0.3h10.7l0.2,0.6c0.3,0.7,0.8,1.2,1.4,1.5l0.6,0.3v20.7h-1.8v0.7h1.2l-0.8,21.3h-2.8v1.3v1.1h9.6v-1
		v-1.4h-3l-0.8-21.4h1.3v-0.6h-1.9V74.2l0.6-0.3c0.7-0.3,1.2-0.9,1.5-1.6l0.2-0.6h10.5l0.3,0.3c0.2,0.2,0.5,0.3,0.8,0.3
		c0.6,0,1.1-0.5,1.1-1.1C414.7,70.7,414.3,70.2,413.7,70.2z"/>
	<path id="roof-cross" fill="none" stroke="#A7A9AC" stroke-width="2" stroke-miterlimit="10" d="M234.6,305.1l150.2-71.4v-13.1
		l7.1-6h0.8v-3.2l0.3-0.4h1.5v-27.3c-1.2-0.8-2.3-1.8-3-3h-13.2c-0.2,2.3-2.1,4.1-4.4,4.1c-2.4,0-4.4-2-4.4-4.4
		c0-0.4,0.1-0.8,0.2-1.2c-1.3-1.2-2.8-2.6-2.8-3.2c0-0.6,1.5-2,2.8-3.2c-0.1-0.4-0.2-0.8-0.2-1.2c0-2.4,2-4.4,4.4-4.4
		c2.3,0,4.2,1.8,4.4,4.1h13.2c0.8-1.2,1.8-2.3,3-3V155c-2.3-0.2-4.1-2.1-4.1-4.4c0-2.4,2-4.4,4.4-4.4c0.4,0,0.8,0.1,1.2,0.2
		c1.2-1.4,2.6-2.8,3.2-2.8c0.6,0,2,1.5,3.2,2.8c0.4-0.1,0.8-0.2,1.2-0.2c2.4,0,4.4,2,4.4,4.4c0,2.3-1.8,4.2-4.1,4.4v13.3
		c1.2,0.8,2.3,1.8,3,3h13.2c0.2-2.3,2.1-4.1,4.4-4.1c2.4,0,4.4,2,4.4,4.4c0,0.4-0.1,0.8-0.2,1.2c1.3,1.2,2.8,2.6,2.8,3.2
		c0,0.6-1.5,2-2.8,3.2c0.1,0.4,0.2,0.8,0.2,1.2c0,2.4-2,4.4-4.4,4.4c-2.3,0-4.2-1.8-4.4-4.1h-13.2c-0.8,1.2-1.8,2.3-3,3v27.3h1.5
		l0.3,0.4v3.2h0.7l7.1,6v13.1l73.4,33.9v-1.8l-72.2-33.3v-13.3l-7-6H407v-3.4l-0.4-0.5h-1.4V189V185v-0.9c1-0.7,1.9-1.6,2.6-2.6h0.9
		h5.2h5c0.2,2.9,2.9,4.2,5.8,4.2c3.1,0,5.3-1.9,5.3-4.9c0-0.5-0.1-1-0.2-1.5c1.7-1.5,3.4-2.9,3.4-3.6c0-0.7-1.7-2.3-3.4-3.8
		c0.1-0.5,0.2-1,0.2-1.5c0-3.1-2.5-4.9-5.6-4.9c-2.9,0-5.1,1.4-5.3,4.2h-10.2c0,0,0,0,0,0h-1.1c-0.7-1-1.6-1.9-2.6-2.6v-1h0v-10.6
		c2.9-0.2,4.2-2.6,4.2-5.5c0-3.1-2.2-5.5-5.2-5.5c-0.5,0-1,0.1-1.5,0.2c-1.5-1.7-2.9-3.1-3.6-3.1c-0.7,0-2,1.4-3.5,3.1
		c-0.5-0.1-1-0.2-1.5-0.2c-3.1,0-5.4,2.5-5.4,5.5c0,2.9,1.5,5.3,4.4,5.5v11.7c-0.9,0.7-1.8,1.5-2.4,2.5l-1.2,0h-10.3
		c-0.2-2.9-2.6-4.2-5.5-4.2c-3.1,0-5.4,1.9-5.4,4.9c0,0.5,0.1,1,0.2,1.5c-1.7,1.5-3.1,3.1-3.1,3.8c0,0.7,1.4,2.2,3.1,3.6
		c-0.1,0.5-0.2,1-0.2,1.5c0,3.1,2.5,4.9,5.5,4.9c2.9,0,5.3-1.4,5.5-4.2h5.1h5.2h1c0.7,1,1.5,1.9,2.5,2.6v1c0,0,0,0,0,0v24.2H392
		l-0.4,0.5v3.4h-1l-7,5.9v13.5l-148.9,70.4V305.1z"/>
</g>
</svg>
